<svg xmlns="http://www.w3.org/2000/svg" viewBox="0 0 64 64" style="enable-background:new 0 0 64 64" xml:space="preserve"><path d="m27 3.4-16 9.2c-3.1 1.8-5 5.1-5 8.7v21.4c0 3.6 1.9 6.9 5 8.7l16 9.2c3.1 1.8 6.9 1.8 10 0l16-9.2c3.1-1.8 5-5.1 5-8.7V21.3c0-3.6-1.9-6.9-5-8.7L37 3.4c-3.1-1.8-6.9-1.8-10 0z" style="fill:#fff"/><path d="m12 14.3 5-2.9L15 8l-5 2.9C6.3 13 4 17 4 21.3v21.4C4 47 6.3 51 10 53.1l16 9.2c3.7 2.1 8.3 2.1 12 0l16-9.2c3.7-2.1 6-6.1 6-10.4V40h-3.5V24.9c0-3.1-3.3-5-6-3.5L36 29.7c-2.5 1.4-4 4.1-4 6.9v2.8c0 9.5-10.1 15.4-18.3 11.2l-1.7-1c-2.5-1.4-4-4.1-4-6.9V21.3c0-2.9 1.5-5.5 4-7z" style="fill:#acbdc5"/><path d="m13 13.8-2-3.5 15-8.7c3.7-2.1 8.3-2.1 12 0l16 9.2c3.7 2.1 6 6.1 6 10.4v21.4c0 4.3-2.3 8.3-6 10.4l-1 .6-2-3.5 1-.6c2.5-1.4 4-4.1 4-6.9V21.3c0-2.9-1.5-5.5-4-6.9L36 5.1c-2.5-1.4-5.5-1.4-8 0l-15 8.7zm-.3 19.7c1.1 2 3.2 2.9 4.7 2s1.7-3.2.6-5.2-3.2-2.9-4.7-2c-1.5.9-1.7 3.2-.6 5.2zm38.2-5.2c-1.2-.7-3 0-4 1.7s-.7 3.5.5 4.2 3 0 4-1.7.7-3.5-.5-4.2zm-5.2 8.8c-1.2-.7-3 0-4 1.7-1 1.6-.7 3.5.5 4.2 1.2.7 3 0 4-1.7s.8-3.5-.5-4.2zm-8.6 14.6c1.2.7 3 0 4-1.7 1-1.6.7-3.5-.5-4.2s-3 0-4 1.7-.7 3.5.5 4.2zm-9.8-5.2c-1.1-2-3.2-2.9-4.7-2-1.5.9-1.7 3.2-.6 5.2s3.2 2.9 4.7 2c1.5-.9 1.7-3.2.6-5.2z" style="fill:#314a52"/><path d="M40 17c0 2.8-3.6 4-8 4s-8-1.2-8-4 3.6-5 8-5 8 2.2 8 5z" style="fill:#d7385e"/><path d="M39.8 15.9s0 .1 0 0c0 1.2-3.5 2.1-7.8 2.1s-7.8-.9-7.8-2v-.1c-.1.4-.2.7-.2 1.1 0 2.8 3.6 5 8 5s8-2.2 8-5c0-.4-.1-.7-.2-1.1z" style="fill:#ff6c58"/></svg>
